<?xml version="1.0" encoding="utf-8"?>
<!-- Generator: Adobe Illustrator 25.3.1, SVG Export Plug-In . SVG Version: 6.00 Build 0)  -->
<svg version="1.1" id="Camada_1" xmlns="http://www.w3.org/2000/svg" xmlns:xlink="http://www.w3.org/1999/xlink" x="0px" y="0px"
	 viewBox="0 0 280.4 38" style="enable-background:new 0 0 280.4 38;" xml:space="preserve">
<g>
	<path d="M6.1,37H1.6c-0.2,0-0.4-0.1-0.5-0.2c-0.1-0.1-0.2-0.3-0.2-0.5V12c0-1.4,0.3-2.7,0.8-4C2.3,6.8,3,5.7,3.9,4.8s2-1.7,3.3-2.2
		c1.2-0.5,2.6-0.8,4-0.8c1.4,0,2.7,0.3,4,0.8c1.3,0.5,2.3,1.3,3.3,2.2s1.7,2,2.2,3.3c0.5,1.3,0.8,2.6,0.8,4v24.3
		c0,0.2-0.1,0.3-0.2,0.5C21.2,36.9,21,37,20.8,37h-4.5c-0.2,0-0.3-0.1-0.4-0.2c-0.1-0.1-0.2-0.3-0.2-0.5V25.3H6.8v11.1
		c0,0.2-0.1,0.3-0.2,0.5C6.5,36.9,6.3,37,6.1,37z M15.6,19.4V12c0-1.2-0.4-2.3-1.3-3.1c-0.9-0.9-1.9-1.3-3.1-1.3
		c-1.2,0-2.3,0.4-3.2,1.3C7.2,9.8,6.8,10.8,6.8,12v7.4H15.6z"/>
	<path d="M38.7,1.8c1.6,0,3.1,0.3,4.6,0.9c1.4,0.6,2.7,1.4,3.7,2.5C48,6.3,48.9,7.6,49.5,9s0.9,3,0.9,4.6c0,2.2-0.6,4.2-1.7,6
		c-1.1,1.8-2.6,3.2-4.4,4.2l5.8,12.6c0.2,0.4,0,0.6-0.4,0.6h-5.1c-0.2,0-0.3-0.1-0.5-0.2c-0.2-0.1-0.3-0.3-0.4-0.4l-2.1-4.6L36.2,20
		c-0.2-0.4,0-0.6,0.4-0.6h2.1c0.8,0,1.5-0.2,2.3-0.5c0.7-0.3,1.3-0.7,1.9-1.3s0.9-1.2,1.3-1.9c0.3-0.7,0.5-1.5,0.5-2.3
		c0-0.8-0.2-1.6-0.5-2.3c-0.3-0.7-0.7-1.3-1.3-1.9s-1.2-0.9-1.9-1.3c-0.7-0.3-1.5-0.5-2.3-0.5h-5.9v28.7c0,0.2-0.1,0.3-0.2,0.4
		c-0.1,0.1-0.3,0.2-0.5,0.2h-4.5c-0.4,0-0.6-0.2-0.6-0.6V2.4c0-0.4,0.2-0.6,0.6-0.6H38.7z"/>
	<path d="M71.8,2c0.2-0.1,0.4-0.2,0.5-0.2h5c0.4,0,0.6,0.2,0.4,0.6l-9.1,21.7v12.2c0,0.4-0.2,0.6-0.6,0.6h-4.5
		c-0.5,0-0.7-0.2-0.7-0.6V24.1L53.7,2.4c-0.2-0.4,0-0.6,0.4-0.6h5c0.5,0,0.8,0.2,0.9,0.6l5.7,14.5l5.7-14.5
		C71.5,2.2,71.6,2.1,71.8,2z"/>
	<path d="M114,2.4V7c0,0.4-0.2,0.6-0.6,0.6h-11.1v5.9h8.1c0.2,0,0.4,0.1,0.5,0.2c0.1,0.1,0.2,0.3,0.2,0.5v4.5c0,0.4-0.2,0.6-0.7,0.6
		h-8.1v17c0,0.4-0.2,0.6-0.6,0.6h-4.5c-0.5,0-0.7-0.2-0.7-0.6V2.4c0-0.4,0.2-0.6,0.7-0.6h16.3C113.8,1.8,114,2,114,2.4z"/>
	<path d="M117.7,1.8h16.2c0.5,0,0.7,0.2,0.7,0.6v4.5c0,0.5-0.2,0.7-0.7,0.7h-11.1v5.9h8.1c0.4,0,0.6,0.2,0.6,0.6v4.5
		c0,0.2-0.1,0.3-0.2,0.5c-0.1,0.1-0.3,0.2-0.4,0.2h-8.1v11.7h11.1c0.5,0,0.7,0.2,0.7,0.6v4.5c0,0.2-0.1,0.3-0.2,0.5
		c-0.1,0.1-0.3,0.2-0.5,0.2h-16.2c-0.2,0-0.4-0.1-0.5-0.2c-0.1-0.1-0.2-0.3-0.2-0.5V2.4C117,2,117.2,1.8,117.7,1.8z"/>
	<path d="M151.3,1.8c1.6,0,3.1,0.3,4.6,0.9c1.4,0.6,2.7,1.4,3.7,2.5c1.1,1.1,1.9,2.3,2.5,3.8s0.9,3,0.9,4.6c0,2.2-0.6,4.2-1.7,6
		c-1.1,1.8-2.6,3.2-4.4,4.2l5.8,12.6c0.2,0.4,0,0.6-0.4,0.6h-5.1c-0.2,0-0.3-0.1-0.5-0.2c-0.2-0.1-0.3-0.3-0.4-0.4l-2.1-4.6
		L148.8,20c-0.2-0.4,0-0.6,0.4-0.6h2.1c0.8,0,1.5-0.2,2.3-0.5c0.7-0.3,1.3-0.7,1.9-1.3s0.9-1.2,1.3-1.9c0.3-0.7,0.5-1.5,0.5-2.3
		c0-0.8-0.2-1.6-0.5-2.3c-0.3-0.7-0.7-1.3-1.3-1.9s-1.2-0.9-1.9-1.3c-0.7-0.3-1.5-0.5-2.3-0.5h-5.9v28.7c0,0.2-0.1,0.3-0.2,0.4
		c-0.1,0.1-0.3,0.2-0.5,0.2h-4.5c-0.4,0-0.6-0.2-0.6-0.6V2.4c0-0.4,0.2-0.6,0.6-0.6H151.3z"/>
	<path d="M179.7,1.8c1.6,0,3.1,0.3,4.6,0.9c1.4,0.6,2.7,1.4,3.7,2.5c1.1,1.1,1.9,2.3,2.5,3.8c0.6,1.4,0.9,3,0.9,4.6
		c0,2.2-0.6,4.2-1.7,6c-1.1,1.8-2.6,3.2-4.4,4.2l5.8,12.6c0.2,0.4,0,0.6-0.4,0.6h-5.1c-0.2,0-0.3-0.1-0.5-0.2
		c-0.2-0.1-0.3-0.3-0.4-0.4l-2.1-4.6L177.3,20c-0.2-0.4,0-0.6,0.4-0.6h2.1c0.8,0,1.5-0.2,2.3-0.5c0.7-0.3,1.3-0.7,1.9-1.3
		s0.9-1.2,1.3-1.9c0.3-0.7,0.5-1.5,0.5-2.3c0-0.8-0.2-1.6-0.5-2.3c-0.3-0.7-0.7-1.3-1.3-1.9s-1.2-0.9-1.9-1.3
		c-0.7-0.3-1.5-0.5-2.3-0.5h-5.9v28.7c0,0.2-0.1,0.3-0.2,0.4c-0.1,0.1-0.3,0.2-0.5,0.2h-4.5c-0.4,0-0.6-0.2-0.6-0.6V2.4
		c0-0.4,0.2-0.6,0.6-0.6H179.7z"/>
	<path d="M197.1,1.8h16.2c0.5,0,0.7,0.2,0.7,0.6v4.5c0,0.5-0.2,0.7-0.7,0.7h-11.1v5.9h8.1c0.4,0,0.6,0.2,0.6,0.6v4.5
		c0,0.2-0.1,0.3-0.2,0.5c-0.1,0.1-0.3,0.2-0.4,0.2h-8.1v11.7h11.1c0.5,0,0.7,0.2,0.7,0.6v4.5c0,0.2-0.1,0.3-0.2,0.5
		c-0.1,0.1-0.3,0.2-0.5,0.2h-16.2c-0.2,0-0.4-0.1-0.5-0.2c-0.1-0.1-0.2-0.3-0.2-0.5V2.4C196.4,2,196.6,1.8,197.1,1.8z"/>
	<path d="M219,36.4V2.4c0-0.4,0.2-0.6,0.7-0.6h4.5c0.5,0,0.7,0.2,0.7,0.6v33.9c0,0.4-0.2,0.6-0.7,0.6h-4.5
		C219.2,37,219,36.8,219,36.4z"/>
	<path d="M242,1.8c1.6,0,3.1,0.3,4.6,0.9c1.4,0.6,2.7,1.4,3.7,2.5c1.1,1.1,1.9,2.3,2.5,3.8c0.6,1.4,0.9,3,0.9,4.6
		c0,2.2-0.6,4.2-1.7,6c-1.1,1.8-2.6,3.2-4.4,4.2l5.8,12.6c0.2,0.4,0,0.6-0.4,0.6h-5.1c-0.2,0-0.3-0.1-0.5-0.2
		c-0.2-0.1-0.3-0.3-0.4-0.4l-2.1-4.6L239.6,20c-0.2-0.4,0-0.6,0.4-0.6h2.1c0.8,0,1.5-0.2,2.3-0.5c0.7-0.3,1.3-0.7,1.9-1.3
		s0.9-1.2,1.3-1.9c0.3-0.7,0.5-1.5,0.5-2.3c0-0.8-0.2-1.6-0.5-2.3c-0.3-0.7-0.7-1.3-1.3-1.9s-1.2-0.9-1.9-1.3
		c-0.7-0.3-1.5-0.5-2.3-0.5h-5.9v28.7c0,0.2-0.1,0.3-0.2,0.4c-0.1,0.1-0.3,0.2-0.5,0.2h-4.5c-0.4,0-0.6-0.2-0.6-0.6V2.4
		c0-0.4,0.2-0.6,0.6-0.6H242z"/>
	<path d="M263.9,37h-4.5c-0.2,0-0.4-0.1-0.5-0.2c-0.1-0.1-0.2-0.3-0.2-0.5V12c0-1.4,0.3-2.7,0.8-4c0.5-1.3,1.3-2.3,2.2-3.3
		c0.9-0.9,2-1.7,3.3-2.2c1.2-0.5,2.6-0.8,4-0.8c1.4,0,2.7,0.3,4,0.8c1.2,0.5,2.3,1.3,3.3,2.2c0.9,0.9,1.7,2,2.2,3.3
		c0.5,1.3,0.8,2.6,0.8,4v24.3c0,0.2-0.1,0.3-0.2,0.5c-0.1,0.1-0.3,0.2-0.5,0.2h-4.5c-0.2,0-0.3-0.1-0.4-0.2
		c-0.1-0.1-0.2-0.3-0.2-0.5V25.3h-8.8v11.1c0,0.2-0.1,0.3-0.2,0.5C264.3,36.9,264.1,37,263.9,37z M273.4,19.4V12
		c0-1.2-0.4-2.3-1.3-3.1c-0.9-0.9-1.9-1.3-3.1-1.3c-1.2,0-2.3,0.4-3.2,1.3c-0.9,0.9-1.3,1.9-1.3,3.1v7.4H273.4z"/>
</g>
</svg>
